<svg id="fi_5206638" height="512" viewBox="0 0 32 32" width="512" xmlns="http://www.w3.org/2000/svg" xmlns:svg="http://www.w3.org/2000/svg"><g id="g335" transform="translate(-40 40)"><path id="path307" d="m49-38c-.55228 0-1 .44772-1 1v1h-2c-2.1987 0-4 1.8013-4 4v18c0 2.1987 1.8013 4 4 4h20c2.1987 0 4-1.8013 4-4v-18c0-2.1987-1.8013-4-4-4h-2v-1c0-.55228-.44772-1-1-1s-1 .44772-1 1v1h-5v-1c0-.55228-.44772-1-1-1s-1 .44772-1 1v1h-5v-1c0-.55228-.44772-1-1-1zm-3 4h2v1c0 .55228.44772 1 1 1s1-.44772 1-1v-1h5v1c0 .55228.44772 1 1 1s1-.44772 1-1v-1h5v1c0 .55228.44772 1 1 1s1-.44772 1-1v-1h2c1.1253 0 2 .8747 2 2v2h-24v-2c0-1.1253.8747-2 2-2zm6.70703 9.29297 3.29297 3.29297 3.29297-3.29297c.39051-.39042 1.02355-.39042 1.41406 0 .39042.39051.39042 1.02355 0 1.41406l-3.29297 3.29297 3.29297 3.29297c.39042.39051.39042 1.02355 0 1.41406-.39051.39042-1.02355.39042-1.41406 0l-3.29297-3.29297-3.29297 3.29297c-.39051.39042-1.02355.39042-1.41406 0-.39042-.39051-.39042-1.02355 0-1.41406l3.29297-3.29297-3.29297-3.29297c-.39042-.39051-.39042-1.02355 0-1.41406.3887-.43286 1.03867-.39319 1.41406 0z" font-variant-ligatures="normal" font-variant-position="normal" font-variant-caps="normal" font-variant-numeric="normal" font-variant-alternates="normal" font-variant-east-asian="normal" font-feature-settings="normal" font-variation-settings="normal" text-indent="0" text-align="start" text-decoration-line="none" text-decoration-style="solid" text-decoration-color="rgb(0,0,0)" text-transform="none" text-orientation="mixed" white-space="normal" shape-padding="0" shape-margin="0" inline-size="0" isolation="auto" mix-blend-mode="normal" solid-color="rgb(0,0,0)" solid-opacity="1" vector-effect="none"></path></g></svg>