<svg id="fi_3481809" enable-background="new 0 0 32 32" height="512" viewBox="0 0 32 32" width="512" xmlns="http://www.w3.org/2000/svg"><path d="m8.8 1.6c-.3 0-.6.2-.8.5l-3.3 4.9-1.2-1.8c-.3-.5-1-.6-1.4-.3-.5.3-.6 1-.3 1.4l2.1 3.1c.4.6 1.3.6 1.7 0l4.1-6.1c.4-.7-.1-1.7-.9-1.7zm4.1 3.1c-.6 0-1 .5-1 1 0 .6.5 1 1 1h16.4c.6 0 1-.5 1-1 0-.6-.5-1-1-1zm-4.1 7.2c-.3 0-.6.2-.8.5l-3.3 4.9-1.2-1.8c-.3-.5-1-.6-1.4-.3-.5.3-.6 1-.3 1.4l2.1 3.1c.4.6 1.3.6 1.7 0l4.1-6.2c.5-.7-.1-1.6-.9-1.6zm4 3.1c-.6 0-1 .5-1 1.1s.5 1 1.1 1h16.4c.6 0 1.1-.5 1.1-1 0-.6-.5-1-1.1-1h-16.5c.1-.1.1-.1 0-.1zm-4 7.1c-.3 0-.6.2-.8.5l-3.3 4.9-1.2-1.8c-.3-.5-1-.6-1.4-.3-.5.3-.6 1-.3 1.5l2.1 3.1c.4.6 1.3.6 1.7 0l4.1-6.2c.4-.7-.1-1.7-.9-1.7zm4 3.1c-.6 0-1 .5-1 1.1s.5 1 1.1 1h16.4c.6 0 1.1-.4 1.1-1s-.5-1-1.1-1h-16.5c.1-.1.1-.1 0-.1z"></path></svg>